<svg version="1.2" baseProfile="tiny-ps" xmlns="http://www.w3.org/2000/svg" viewBox="0 0 168 80" width="168" height="80">
	<title>_Path_ (2)-svg</title>
	<style>
		tspan { white-space:pre }
		.shp0 { fill: #000000 } 
	</style>
	<g id="Layer 1">
		<g id="&lt;Group&gt;">
			<g id="&lt;Group&gt;">
				<g id="&lt;Group&gt;">
					<path id="&lt;Path&gt;" class="shp0" d="M159.98 53.74C145.24 34.45 125.14 17.45 101.36 10.97C78.21 4.67 52.03 8.93 35.67 27.53C27.9 36.37 22.55 48.04 23.17 59.99C23.22 61.1 24.83 61.1 24.89 59.99C25.96 37.96 41.3 19.4 62.31 13.06C85.74 5.99 110.85 13.56 130.22 27.39C141.04 35.11 150.1 44.67 158.69 54.74C159.28 55.44 160.55 54.48 159.98 53.74Z" />
				</g>
				<path id="&lt;Path&gt;" class="shp0" d="M21.86 71.9L32.81 60.36L43.76 48.82L24.19 56.57L7.79 43.36L14.82 57.63L21.86 71.9Z" />
			</g>
		</g>
	</g>
</svg>